<?xml version="1.0" encoding="UTF-8" standalone="no"?>
<!DOCTYPE svg PUBLIC "-//W3C//DTD SVG 1.1//EN" "http://www.w3.org/Graphics/SVG/1.1/DTD/svg11.dtd">
<svg width="100%" height="100%" viewBox="0 0 309 282" version="1.1" xmlns="http://www.w3.org/2000/svg" xmlns:xlink="http://www.w3.org/1999/xlink" xml:space="preserve" xmlns:serif="http://www.serif.com/" style="fill-rule:evenodd;clip-rule:evenodd;stroke-linejoin:round;stroke-miterlimit:2;">
    <g transform="matrix(1,0,0,1,-450.318,-67.5)">
        <g id="layer102">
            <path d="M537,345.7C537,340.7 540.9,333.9 545.8,330.5C550.1,327.5 550.4,327.5 565.8,327C582.6,326.4 585.1,325.8 587.3,321.2C589.1,317.6 587.9,311.2 585,308.8C582.9,307.1 579.9,307 542.9,307C497.6,307 500.9,307.7 502.9,298.5C503.8,294.4 505,292.3 508,289.6C514.8,283.5 514.4,283.5 541,283.2L565.5,282.9L568.3,280.2C571.2,277.4 572,271.7 570,267.9C567.4,263.1 566.3,263 515.7,263C476.8,263 468.1,262.8 467.7,261.7C466.7,259 469.1,251.3 472.1,247.6C473.8,245.6 476.9,243.1 479.1,242C482.8,240.1 485.3,240 566.5,240C628.2,240 650.7,239.7 652.3,238.8C655.8,237 656.9,234.8 657,229.8C657,225.6 656.6,224.8 653.7,222.6L650.3,220L550.7,220C484.5,220 450.9,219.7 450.5,219C450.1,218.4 450.4,215.5 451,212.4C452.2,206.5 456.6,201.1 461.8,198.7C463.8,197.8 483,197.4 532.3,197L600.2,196.5L603.2,193.1C605.8,190.2 606.1,189.1 605.7,185.8C605,180.9 602.8,178.3 598.1,177C595.9,176.4 570.4,176 531.3,176C482.2,176 468.1,175.7 467.8,174.8C466.9,172.2 469,164.8 471.6,161.5C473,159.6 476.3,157.1 478.8,155.8C483.4,153.5 484.2,153.5 520.2,153.2L556.8,152.9L559.4,150.3C564.4,145.3 563.8,139.2 558,135.2C554.8,133.1 554,133 528.4,133L502,133L502,130.8C502,126 504.3,120.3 507.8,116.8C514.3,110 514.7,110 568.5,110C621.7,110 619.7,110.2 622.6,103.5C624.5,98.8 622.8,94.6 617.9,91.4L614,89L527.7,89L528.2,84.7C528.8,79.2 532.9,72.9 537.7,69.9L541.5,67.5L667.5,67.5L671.1,69.7C675.9,72.7 679.5,78.4 680.4,84.3L681.1,89L660,89C642.5,89 638.2,89.3 635.4,90.6C630.8,92.8 629,95.6 629,100.3C629,103.4 629.7,104.8 632.1,107.1L635.2,110L661.9,110C677.7,110 690.1,110.4 692.4,111.1C698,112.7 704.5,119.1 705.9,124.5C706.5,126.9 707,129.8 707,130.9C707,132.9 706.6,133 640.4,133.2L573.8,133.5L571.4,136.3C568.1,140.2 568.1,146.7 571.5,150.4L573.9,153L647.8,153C731,153 728.9,152.8 735.9,160C738.7,162.9 740,165.3 740.7,168.9C741.2,171.7 741.4,174.3 741.1,174.9C740.6,175.6 719.5,176 679.3,176.2L618.1,176.5L615.1,179.4C612.6,181.8 612,183.2 612,186.4C612.1,190.8 613.1,192.6 617,195.3C619.2,196.9 624.6,197 681.1,197C747.4,197 746.1,196.9 752.1,202.2C753.5,203.5 755.2,205.5 755.8,206.6C757.4,209.6 758.9,217 758.3,218.6C757.9,219.8 750.3,220 714,220L670.2,220L667.1,222.6C664.6,224.7 664,225.9 664,229.2C664,234.2 665.3,236.6 669,238.5C671.4,239.7 676.8,240 699.3,240L726.8,240L731.6,243.3C738.2,247.8 740.2,250.9 740.8,257.5L741.2,263L693.6,263C660.4,263 645.2,263.3 643.7,264.1C637.6,267.2 636.1,274.6 640.5,279.8L643,282.8L667.9,283.2L692.8,283.5L697.2,286.5C699.5,288.2 702.5,291.1 703.7,292.9C706,296.3 707.7,304.1 706.5,305.9C706.1,306.7 693.7,307 665.7,307L625.5,306.9L622.8,310.2C619.5,314 619.3,317.3 622,321.7C624.6,326.1 629.5,327.2 644,326.9C654.9,326.6 656.1,326.8 660.6,329.1C666.7,332.3 671,338.2 671.7,344.4L672.3,349L537,349L537,345.7ZM610.8,308.4C614.9,308 617.1,307 621.1,303.8C623.9,301.6 626.8,298.3 627.6,296.5C628.3,294.6 629.4,292.9 629.9,292.6C630.4,292.2 631.1,288.6 631.5,284.5C632.1,278.7 631.9,276.1 630.6,272.9C628.7,268.2 623.1,261 621.3,261C620.6,261 620,260.7 620,260.3C620,259.2 615.3,257.1 610,255.7C606.7,254.8 604.1,254.8 600,255.5C590.8,257.3 588.9,258.5 581.5,267.2C576.7,272.8 575.8,283.4 579.4,292.2C582.5,299.7 585.6,303.4 591,305.8C597.8,308.9 601.8,309.4 610.8,308.4Z" style="fill:rgb(254,193,7);fill-rule:nonzero;"/>
        </g>
    </g>
</svg>
